ISO-10303-21;
HEADER;
FILE_DESCRIPTION((''),'2;1');
FILE_NAME('TOP2', '2026-09-20T16:35:19', (''), (''), 'ImageToStl.com STEP Converter','', '');
FILE_SCHEMA(('AUTOMOTIVE_DESIGN_CC2'));
ENDSEC;
DATA;
#1=PRODUCT_DEFINITION_CONTEXT('',#4,'design');
#2=APPLICATION_PROTOCOL_DEFINITION('INTERNATIONAL STANDARD','automotive_design',1994,#4);
#3=(GEOMETRIC_REPRESENTATION_CONTEXT(3)GLOBAL_UNCERTAINTY_ASSIGNED_CONTEXT((#5))GLOBAL_UNIT_ASSIGNED_CONTEXT((#6,#7,#8))REPRESENTATION_CONTEXT('NONE','WORKSPACE'));
#4=APPLICATION_CONTEXT(' ');
#5=UNCERTAINTY_MEASURE_WITH_UNIT(LENGTH_MEASURE(1.0E-006),#6,'','');
#6=(CONVERSION_BASED_UNIT('METRE',#10)LENGTH_UNIT()NAMED_UNIT(#11));
#7=(NAMED_UNIT(#12)PLANE_ANGLE_UNIT()SI_UNIT($,.RADIAN.));
#8=(NAMED_UNIT(#12)SOLID_ANGLE_UNIT()SI_UNIT($,.STERADIAN.));
#9=AXIS2_PLACEMENT_3D('',#14,#15,#16);
#10=LENGTH_MEASURE_WITH_UNIT(LENGTH_MEASURE(1.0),#17);
#11=DIMENSIONAL_EXPONENTS(1.0,0.0,0.0,0.0,0.0,0.0,0.0);
#12=DIMENSIONAL_EXPONENTS(0.0,0.0,0.0,0.0,0.0,0.0,0.0);
#13=PRODUCT_CONTEXT('',#4,'mechanical');
#14=CARTESIAN_POINT('',(0.0,0.0,0.0));
#15=DIRECTION('',(0.0,0.0,1.0));
#16=DIRECTION('',(1.0,0.0,0.0));
#17=(NAMED_UNIT(#11)LENGTH_UNIT()SI_UNIT(.MILLI.,.METRE.));
#18=PRESENTATION_STYLE_ASSIGNMENT((#19));
#19=SURFACE_STYLE_USAGE(.BOTH.,#20);
#20=SURFACE_SIDE_STYLE('',(#21));
#21=SURFACE_STYLE_FILL_AREA(#22);
#22=FILL_AREA_STYLE('',(#23));
#23=FILL_AREA_STYLE_COLOUR('',#24);
#24=COLOUR_RGB('',0.9,0.9,0.9);
#25=SHAPE_DEFINITION_REPRESENTATION(#26,#27);
#26=PRODUCT_DEFINITION_SHAPE('productshape0','',#30);
#27=MANIFOLD_SURFACE_SHAPE_REPRESENTATION('',(#28,#9),#3);
#28=SHELL_BASED_SURFACE_MODEL('shell0',(#33));
#29=PRODUCT('product0','','',(#13));
#30=PRODUCT_DEFINITION('mesh0','',#31,#2);
#31=PRODUCT_DEFINITION_FORMATION_WITH_SPECIFIED_SOURCE('prodsource0','',#29,.NOT_KNOWN.);
#32=STYLED_ITEM('',(#18),#33);
#33=CLOSED_SHELL('',(#74,#96,#118,#140,#162,#184,#206,#228,#250,#272,#294,#316,#338,#360,#382,#404,#426,#448,#470,#492,#514,#536,#558,#580,#602,#624,#646,#668,#690,#712,#734,#756,#778,#800,#822,#844));
#34=CARTESIAN_POINT('',(46,28.629413604736328,4.1800761222839355));
#35=VERTEX_POINT('',#34);
#36=CARTESIAN_POINT('',(46,28.59450912475586,6.179771423339844));
#37=VERTEX_POINT('',#36);
#38=CARTESIAN_POINT('',(46,-35.64570617675781,5.058454513549805));
#39=VERTEX_POINT('',#38);
#40=CARTESIAN_POINT('',(46,-35.610801696777344,3.0587592124938965));
#41=VERTEX_POINT('',#40);
#42=CARTESIAN_POINT('',(-44.5,32.461830139160156,4.246971130371094));
#43=VERTEX_POINT('',#42);
#44=CARTESIAN_POINT('',(-47.99800109863281,32.51418685913086,1.2474281787872314));
#45=VERTEX_POINT('',#44);
#46=CARTESIAN_POINT('',(-47.99800109863281,32.461830139160156,4.246971130371094));
#47=VERTEX_POINT('',#46);
#48=CARTESIAN_POINT('',(45.9633903503418,-35.610801696777344,3.0587592124938965));
#49=VERTEX_POINT('',#48);
#50=CARTESIAN_POINT('',(45.9633903503418,28.629413604736328,4.1800761222839355));
#51=VERTEX_POINT('',#50);
#52=CARTESIAN_POINT('',(-44.5,-35.64570617675781,5.058454513549805));
#53=VERTEX_POINT('',#52);
#54=CARTESIAN_POINT('',(-44.5,-35.610801696777344,3.0587592124938965));
#55=VERTEX_POINT('',#54);
#56=CARTESIAN_POINT('',(-44.5,28.629413604736328,4.1800761222839355));
#57=VERTEX_POINT('',#56);
#58=CARTESIAN_POINT('',(-47.99800109863281,-39.0032844543457,2.9995431900024414));
#59=VERTEX_POINT('',#58);
#60=CARTESIAN_POINT('',(-44.5,-39.0032844543457,2.9995431900024414));
#61=VERTEX_POINT('',#60);
#62=CARTESIAN_POINT('',(-44.5,28.59450912475586,6.179771423339844));
#63=VERTEX_POINT('',#62);
#64=CARTESIAN_POINT('',(42.749080657958984,32.51418685913086,1.2474281787872314));
#65=VERTEX_POINT('',#64);
#66=CARTESIAN_POINT('',(45.9633903503418,32.461830139160156,4.246971130371094));
#67=VERTEX_POINT('',#66);
#68=CARTESIAN_POINT('',(42.749080657958984,-38.950927734375,-6.124935225670924E-09));
#69=VERTEX_POINT('',#68);
#70=CARTESIAN_POINT('',(-47.99800109863281,-38.950927734375,-6.124935225670924E-09));
#71=VERTEX_POINT('',#70);
#72=CARTESIAN_POINT('',(45.9633903503418,-39.0032844543457,2.9995431900024414));
#73=VERTEX_POINT('',#72);
#74=FACE_SURFACE('',(#79),#75,.T.);
#75=PLANE('',#76);
#76=AXIS2_PLACEMENT_3D('',#34,#77,#78);
#77=DIRECTION('',(1,0,0));
#78=DIRECTION('',(0,-0.017452240819678784,0.9998476980472435));
#79=FACE_BOUND('',#80,.T.);
#80=EDGE_LOOP('',(#81,#82,#83));
#81=ORIENTED_EDGE('',*,*,#84,.T.);
#82=ORIENTED_EDGE('',*,*,#85,.T.);
#83=ORIENTED_EDGE('',*,*,#86,.T.);
#84=EDGE_CURVE('',#35,#37,#87,.F.);
#85=EDGE_CURVE('',#37,#39,#88,.T.);
#86=EDGE_CURVE('',#39,#35,#89,.T.);
#87=LINE('',#34,#90);
#88=LINE('',#36,#91);
#89=LINE('',#38,#92);
#90=VECTOR('',#93,1.0);
#91=VECTOR('',#94,1.0);
#92=VECTOR('',#95,1.0);
#93=DIRECTION('',(0,-0.017452240819678784,0.9998476980472435));
#94=DIRECTION('',(0,-0.9998476952159514,-0.017452403025084915));
#95=DIRECTION('',(0,0.9999066344465265,-0.01366464012773548));
#96=FACE_SURFACE('',(#101),#97,.T.);
#97=PLANE('',#98);
#98=AXIS2_PLACEMENT_3D('',#34,#99,#100);
#99=DIRECTION('',(1,0,0));
#100=DIRECTION('',(0,-0.9999066344465265,0.01366464012773548));
#101=FACE_BOUND('',#102,.T.);
#102=EDGE_LOOP('',(#103,#104,#105));
#103=ORIENTED_EDGE('',*,*,#106,.T.);
#104=ORIENTED_EDGE('',*,*,#107,.T.);
#105=ORIENTED_EDGE('',*,*,#108,.T.);
#106=EDGE_CURVE('',#35,#39,#109,.F.);
#107=EDGE_CURVE('',#39,#41,#110,.T.);
#108=EDGE_CURVE('',#41,#35,#111,.T.);
#109=LINE('',#34,#112);
#110=LINE('',#38,#113);
#111=LINE('',#40,#114);
#112=VECTOR('',#115,1.0);
#113=VECTOR('',#116,1.0);
#114=VECTOR('',#117,1.0);
#115=DIRECTION('',(0,-0.9999066344465265,0.01366464012773548));
#116=DIRECTION('',(0,0.017452240819678784,-0.9998476980472435));
#117=DIRECTION('',(0,0.9998476952159514,0.017452403025084915));
#118=FACE_SURFACE('',(#123),#119,.T.);
#119=PLANE('',#120);
#120=AXIS2_PLACEMENT_3D('',#42,#121,#122);
#121=DIRECTION('',(0,0.9998476980472435,0.017452240819678784));
#122=DIRECTION('',(-0.7590728750064075,0.011361507567736422,-0.6509065113941442));
#123=FACE_BOUND('',#124,.T.);
#124=EDGE_LOOP('',(#125,#126,#127));
#125=ORIENTED_EDGE('',*,*,#128,.T.);
#126=ORIENTED_EDGE('',*,*,#129,.T.);
#127=ORIENTED_EDGE('',*,*,#130,.T.);
#128=EDGE_CURVE('',#43,#45,#131,.F.);
#129=EDGE_CURVE('',#45,#47,#132,.T.);
#130=EDGE_CURVE('',#47,#43,#133,.T.);
#131=LINE('',#42,#134);
#132=LINE('',#44,#135);
#133=LINE('',#46,#136);
#134=VECTOR('',#137,1.0);
#135=VECTOR('',#138,1.0);
#136=VECTOR('',#139,1.0);
#137=DIRECTION('',(-0.7590728750064075,0.011361507567736422,-0.6509065113941442));
#138=DIRECTION('',(0,-0.017452240819678784,0.9998476980472436));
#139=DIRECTION('',(1,0,0));
#140=FACE_SURFACE('',(#145),#141,.T.);
#141=PLANE('',#142);
#142=AXIS2_PLACEMENT_3D('',#40,#143,#144);
#143=DIRECTION('',(0,0.017452403025084915,-0.9998476952159515));
#144=DIRECTION('',(-1,0,0));
#145=FACE_BOUND('',#146,.T.);
#146=EDGE_LOOP('',(#147,#148,#149));
#147=ORIENTED_EDGE('',*,*,#150,.T.);
#148=ORIENTED_EDGE('',*,*,#151,.T.);
#149=ORIENTED_EDGE('',*,*,#152,.T.);
#150=EDGE_CURVE('',#41,#49,#153,.F.);
#151=EDGE_CURVE('',#49,#51,#154,.T.);
#152=EDGE_CURVE('',#51,#41,#155,.T.);
#153=LINE('',#40,#156);
#154=LINE('',#48,#157);
#155=LINE('',#50,#158);
#156=VECTOR('',#159,1.0);
#157=VECTOR('',#160,1.0);
#158=VECTOR('',#161,1.0);
#159=DIRECTION('',(-1,0,0));
#160=DIRECTION('',(0,0.9998476952159514,0.017452403025084915));
#161=DIRECTION('',(0.0005697998943412229,-0.9998475329047031,-0.01745240019193209));
#162=FACE_SURFACE('',(#167),#163,.T.);
#163=PLANE('',#164);
#164=AXIS2_PLACEMENT_3D('',#40,#165,#166);
#165=DIRECTION('',(0,0.017452403025084915,-0.9998476952159515));
#166=DIRECTION('',(-0.0005697998943412229,0.9998475329047031,0.01745240019193209));
#167=FACE_BOUND('',#168,.T.);
#168=EDGE_LOOP('',(#169,#170,#171));
#169=ORIENTED_EDGE('',*,*,#172,.T.);
#170=ORIENTED_EDGE('',*,*,#173,.T.);
#171=ORIENTED_EDGE('',*,*,#174,.T.);
#172=EDGE_CURVE('',#41,#51,#175,.F.);
#173=EDGE_CURVE('',#51,#35,#176,.T.);
#174=EDGE_CURVE('',#35,#41,#177,.T.);
#175=LINE('',#40,#178);
#176=LINE('',#50,#179);
#177=LINE('',#34,#180);
#178=VECTOR('',#181,1.0);
#179=VECTOR('',#182,1.0);
#180=VECTOR('',#183,1.0);
#181=DIRECTION('',(-0.0005697998943412229,0.9998475329047031,0.01745240019193209));
#182=DIRECTION('',(1,0,0));
#183=DIRECTION('',(0,-0.9998476952159514,-0.017452403025084915));
#184=FACE_SURFACE('',(#189),#185,.T.);
#185=PLANE('',#186);
#186=AXIS2_PLACEMENT_3D('',#52,#187,#188);
#187=DIRECTION('',(0,-0.9998476980472435,-0.017452240819678784));
#188=DIRECTION('',(0.9997556991017236,0.0003857466832661529,-0.022099622465564905));
#189=FACE_BOUND('',#190,.T.);
#190=EDGE_LOOP('',(#191,#192,#193));
#191=ORIENTED_EDGE('',*,*,#194,.T.);
#192=ORIENTED_EDGE('',*,*,#195,.T.);
#193=ORIENTED_EDGE('',*,*,#196,.T.);
#194=EDGE_CURVE('',#53,#49,#197,.F.);
#195=EDGE_CURVE('',#49,#39,#198,.T.);
#196=EDGE_CURVE('',#39,#53,#199,.T.);
#197=LINE('',#52,#200);
#198=LINE('',#48,#201);
#199=LINE('',#38,#202);
#200=VECTOR('',#203,1.0);
#201=VECTOR('',#204,1.0);
#202=VECTOR('',#205,1.0);
#203=DIRECTION('',(0.9997556991017236,0.0003857466832661529,-0.022099622465564905));
#204=DIRECTION('',(0.018301759801248093,-0.017449317722352826,0.9996802323239175));
#205=DIRECTION('',(-1,0,0));
#206=FACE_SURFACE('',(#211),#207,.T.);
#207=PLANE('',#208);
#208=AXIS2_PLACEMENT_3D('',#54,#209,#210);
#209=DIRECTION('',(0,-0.9998476980472436,-0.017452240819678784));
#210=DIRECTION('',(1,0,0));
#211=FACE_BOUND('',#212,.T.);
#212=EDGE_LOOP('',(#213,#214,#215));
#213=ORIENTED_EDGE('',*,*,#216,.T.);
#214=ORIENTED_EDGE('',*,*,#217,.T.);
#215=ORIENTED_EDGE('',*,*,#218,.T.);
#216=EDGE_CURVE('',#55,#49,#219,.F.);
#217=EDGE_CURVE('',#49,#53,#220,.T.);
#218=EDGE_CURVE('',#53,#55,#221,.T.);
#219=LINE('',#54,#222);
#220=LINE('',#48,#223);
#221=LINE('',#52,#224);
#222=VECTOR('',#225,1.0);
#223=VECTOR('',#226,1.0);
#224=VECTOR('',#227,1.0);
#225=DIRECTION('',(1,0,0));
#226=DIRECTION('',(-0.9997556991017236,-0.0003857466832661529,0.022099622465564905));
#227=DIRECTION('',(0,0.017452240819678784,-0.9998476980472435));
#228=FACE_SURFACE('',(#233),#229,.T.);
#229=PLANE('',#230);
#230=AXIS2_PLACEMENT_3D('',#40,#231,#232);
#231=DIRECTION('',(-0,-0.9998476980472436,-0.017452240819678784));
#232=DIRECTION('',(0,-0.017452240819678784,0.9998476980472435));
#233=FACE_BOUND('',#234,.T.);
#234=EDGE_LOOP('',(#235,#236,#237));
#235=ORIENTED_EDGE('',*,*,#238,.T.);
#236=ORIENTED_EDGE('',*,*,#239,.T.);
#237=ORIENTED_EDGE('',*,*,#240,.T.);
#238=EDGE_CURVE('',#41,#39,#241,.F.);
#239=EDGE_CURVE('',#39,#49,#242,.T.);
#240=EDGE_CURVE('',#49,#41,#243,.T.);
#241=LINE('',#40,#244);
#242=LINE('',#38,#245);
#243=LINE('',#48,#246);
#244=VECTOR('',#247,1.0);
#245=VECTOR('',#248,1.0);
#246=VECTOR('',#249,1.0);
#247=DIRECTION('',(0,-0.017452240819678784,0.9998476980472435));
#248=DIRECTION('',(-0.018301759801248093,0.017449317722352826,-0.9996802323239175));
#249=DIRECTION('',(1,0,0));
#250=FACE_SURFACE('',(#255),#251,.T.);
#251=PLANE('',#252);
#252=AXIS2_PLACEMENT_3D('',#54,#253,#254);
#253=DIRECTION('',(-7.79508127126086E-09,-0.01745240302508491,0.9998476952159513));
#254=DIRECTION('',(0,0.9998476952159514,0.017452403025084915));
#255=FACE_BOUND('',#256,.T.);
#256=EDGE_LOOP('',(#257,#258,#259));
#257=ORIENTED_EDGE('',*,*,#260,.T.);
#258=ORIENTED_EDGE('',*,*,#261,.T.);
#259=ORIENTED_EDGE('',*,*,#262,.T.);
#260=EDGE_CURVE('',#55,#57,#263,.F.);
#261=EDGE_CURVE('',#57,#59,#264,.T.);
#262=EDGE_CURVE('',#59,#55,#265,.T.);
#263=LINE('',#54,#266);
#264=LINE('',#56,#267);
#265=LINE('',#58,#268);
#266=VECTOR('',#269,1.0);
#267=VECTOR('',#270,1.0);
#268=VECTOR('',#271,1.0);
#269=DIRECTION('',(0,0.9998476952159514,0.017452403025084915));
#270=DIRECTION('',(-0.051643677203609566,-0.9985134734055912,-0.017429114503939126));
#271=DIRECTION('',(0.7177979907227332,0.696145380827881,0.012151266041503444));
#272=FACE_SURFACE('',(#277),#273,.T.);
#273=PLANE('',#274);
#274=AXIS2_PLACEMENT_3D('',#60,#275,#276);
#275=DIRECTION('',(0,-0.017452411060172954,0.9998476950756984));
#276=DIRECTION('',(0,0.9998476950756984,0.017452411060172954));
#277=FACE_BOUND('',#278,.T.);
#278=EDGE_LOOP('',(#279,#280,#281));
#279=ORIENTED_EDGE('',*,*,#282,.T.);
#280=ORIENTED_EDGE('',*,*,#283,.T.);
#281=ORIENTED_EDGE('',*,*,#284,.T.);
#282=EDGE_CURVE('',#61,#55,#285,.F.);
#283=EDGE_CURVE('',#55,#59,#286,.T.);
#284=EDGE_CURVE('',#59,#61,#287,.T.);
#285=LINE('',#60,#288);
#286=LINE('',#54,#289);
#287=LINE('',#58,#290);
#288=VECTOR('',#291,1.0);
#289=VECTOR('',#292,1.0);
#290=VECTOR('',#293,1.0);
#291=DIRECTION('',(0,0.9998476950756984,0.017452411060172954));
#292=DIRECTION('',(-0.7177979907227332,-0.696145380827881,-0.012151266041503444));
#293=DIRECTION('',(1,0,0));
#294=FACE_SURFACE('',(#299),#295,.T.);
#295=PLANE('',#296);
#296=AXIS2_PLACEMENT_3D('',#46,#297,#298);
#297=DIRECTION('',(-1.61804583322473E-08,-0.017452402591520602,0.999847695223519));
#298=DIRECTION('',(0,-0.9998476952235192,-0.017452402591520606));
#299=FACE_BOUND('',#300,.T.);
#300=EDGE_LOOP('',(#301,#302,#303));
#301=ORIENTED_EDGE('',*,*,#304,.T.);
#302=ORIENTED_EDGE('',*,*,#305,.T.);
#303=ORIENTED_EDGE('',*,*,#306,.T.);
#304=EDGE_CURVE('',#47,#59,#307,.F.);
#305=EDGE_CURVE('',#59,#57,#308,.T.);
#306=EDGE_CURVE('',#57,#47,#309,.T.);
#307=LINE('',#46,#310);
#308=LINE('',#58,#311);
#309=LINE('',#56,#312);
#310=VECTOR('',#313,1.0);
#311=VECTOR('',#314,1.0);
#312=VECTOR('',#315,1.0);
#313=DIRECTION('',(0,-0.9998476952235192,-0.017452402591520606));
#314=DIRECTION('',(0.051643677203609566,0.9985134734055912,0.017429114503939126));
#315=DIRECTION('',(-0.674091224567014,0.7385356041627166,0.01289117317216322));
#316=FACE_SURFACE('',(#321),#317,.T.);
#317=PLANE('',#318);
#318=AXIS2_PLACEMENT_3D('',#42,#319,#320);
#319=DIRECTION('',(0,-0.017452387827462165,0.9998476954812268));
#320=DIRECTION('',(-1,0,0));
#321=FACE_BOUND('',#322,.T.);
#322=EDGE_LOOP('',(#323,#324,#325));
#323=ORIENTED_EDGE('',*,*,#326,.T.);
#324=ORIENTED_EDGE('',*,*,#327,.T.);
#325=ORIENTED_EDGE('',*,*,#328,.T.);
#326=EDGE_CURVE('',#43,#47,#329,.F.);
#327=EDGE_CURVE('',#47,#57,#330,.T.);
#328=EDGE_CURVE('',#57,#43,#331,.T.);
#329=LINE('',#42,#332);
#330=LINE('',#46,#333);
#331=LINE('',#56,#334);
#332=VECTOR('',#335,1.0);
#333=VECTOR('',#336,1.0);
#334=VECTOR('',#337,1.0);
#335=DIRECTION('',(-1,0,0));
#336=DIRECTION('',(0.674091224567014,-0.7385356041627166,-0.01289117317216322));
#337=DIRECTION('',(0,0.9998476954812267,0.017452387827462165));
#338=FACE_SURFACE('',(#343),#339,.T.);
#339=PLANE('',#340);
#340=AXIS2_PLACEMENT_3D('',#54,#341,#342);
#341=DIRECTION('',(-1,0,0));
#342=DIRECTION('',(0,-0.017452240819678784,0.9998476980472435));
#343=FACE_BOUND('',#344,.T.);
#344=EDGE_LOOP('',(#345,#346,#347));
#345=ORIENTED_EDGE('',*,*,#348,.T.);
#346=ORIENTED_EDGE('',*,*,#349,.T.);
#347=ORIENTED_EDGE('',*,*,#350,.T.);
#348=EDGE_CURVE('',#55,#53,#351,.F.);
#349=EDGE_CURVE('',#53,#63,#352,.T.);
#350=EDGE_CURVE('',#63,#55,#353,.T.);
#351=LINE('',#54,#354);
#352=LINE('',#52,#355);
#353=LINE('',#62,#356);
#354=VECTOR('',#357,1.0);
#355=VECTOR('',#358,1.0);
#356=VECTOR('',#359,1.0);
#357=DIRECTION('',(0,-0.017452240819678784,0.9998476980472435));
#358=DIRECTION('',(0,0.9998476952159514,0.017452403025084915));
#359=DIRECTION('',(0,-0.9988206296249582,-0.04855254715874439));
#360=FACE_SURFACE('',(#365),#361,.T.);
#361=PLANE('',#362);
#362=AXIS2_PLACEMENT_3D('',#54,#363,#364);
#363=DIRECTION('',(-1,0,0));
#364=DIRECTION('',(0,0.9988206296249582,0.04855254715874439));
#365=FACE_BOUND('',#366,.T.);
#366=EDGE_LOOP('',(#367,#368,#369));
#367=ORIENTED_EDGE('',*,*,#370,.T.);
#368=ORIENTED_EDGE('',*,*,#371,.T.);
#369=ORIENTED_EDGE('',*,*,#372,.T.);
#370=EDGE_CURVE('',#55,#63,#373,.F.);
#371=EDGE_CURVE('',#63,#57,#374,.T.);
#372=EDGE_CURVE('',#57,#55,#375,.T.);
#373=LINE('',#54,#376);
#374=LINE('',#62,#377);
#375=LINE('',#56,#378);
#376=VECTOR('',#379,1.0);
#377=VECTOR('',#380,1.0);
#378=VECTOR('',#381,1.0);
#379=DIRECTION('',(0,0.9988206296249582,0.04855254715874439));
#380=DIRECTION('',(0,0.017452240819678784,-0.9998476980472435));
#381=DIRECTION('',(0,-0.9998476952159514,-0.017452403025084915));
#382=FACE_SURFACE('',(#387),#383,.T.);
#383=PLANE('',#384);
#384=AXIS2_PLACEMENT_3D('',#64,#385,#386);
#385=DIRECTION('',(0,0.9998476980472435,0.017452240819678784));
#386=DIRECTION('',(-1,0,0));
#387=FACE_BOUND('',#388,.T.);
#388=EDGE_LOOP('',(#389,#390,#391));
#389=ORIENTED_EDGE('',*,*,#392,.T.);
#390=ORIENTED_EDGE('',*,*,#393,.T.);
#391=ORIENTED_EDGE('',*,*,#394,.T.);
#392=EDGE_CURVE('',#65,#45,#395,.F.);
#393=EDGE_CURVE('',#45,#43,#396,.T.);
#394=EDGE_CURVE('',#43,#65,#397,.T.);
#395=LINE('',#64,#398);
#396=LINE('',#44,#399);
#397=LINE('',#42,#400);
#398=VECTOR('',#401,1.0);
#399=VECTOR('',#402,1.0);
#400=VECTOR('',#403,1.0);
#401=DIRECTION('',(-1,0,0));
#402=DIRECTION('',(0.7590728750064075,-0.011361507567736422,0.6509065113941442));
#403=DIRECTION('',(0.9994093831018855,0.0005997289233601265,-0.03435877316097056));
#404=FACE_SURFACE('',(#409),#405,.T.);
#405=PLANE('',#406);
#406=AXIS2_PLACEMENT_3D('',#64,#407,#408);
#407=DIRECTION('',(0,0.9998476980472435,0.017452240819678784));
#408=DIRECTION('',(-0.9994093831018855,-0.0005997289233601265,0.03435877316097056));
#409=FACE_BOUND('',#410,.T.);
#410=EDGE_LOOP('',(#411,#412,#413));
#411=ORIENTED_EDGE('',*,*,#414,.T.);
#412=ORIENTED_EDGE('',*,*,#415,.T.);
#413=ORIENTED_EDGE('',*,*,#416,.T.);
#414=EDGE_CURVE('',#65,#43,#417,.F.);
#415=EDGE_CURVE('',#43,#67,#418,.T.);
#416=EDGE_CURVE('',#67,#65,#419,.T.);
#417=LINE('',#64,#420);
#418=LINE('',#42,#421);
#419=LINE('',#66,#422);
#420=VECTOR('',#423,1.0);
#421=VECTOR('',#424,1.0);
#422=VECTOR('',#425,1.0);
#423=DIRECTION('',(-0.9994093831018855,-0.0005997289233601265,0.03435877316097056));
#424=DIRECTION('',(1,0,0));
#425=DIRECTION('',(-0.7310578233548144,0.01190793464316296,-0.6822115947448086));
#426=FACE_SURFACE('',(#431),#427,.T.);
#427=PLANE('',#428);
#428=AXIS2_PLACEMENT_3D('',#36,#429,#430);
#429=DIRECTION('',(0,-0.017452403025084915,0.9998476952159514));
#430=DIRECTION('',(-1,0,0));
#431=FACE_BOUND('',#432,.T.);
#432=EDGE_LOOP('',(#433,#434,#435));
#433=ORIENTED_EDGE('',*,*,#436,.T.);
#434=ORIENTED_EDGE('',*,*,#437,.T.);
#435=ORIENTED_EDGE('',*,*,#438,.T.);
#436=EDGE_CURVE('',#37,#63,#439,.F.);
#437=EDGE_CURVE('',#63,#53,#440,.T.);
#438=EDGE_CURVE('',#53,#37,#441,.T.);
#439=LINE('',#36,#442);
#440=LINE('',#62,#443);
#441=LINE('',#52,#444);
#442=VECTOR('',#445,1.0);
#443=VECTOR('',#446,1.0);
#444=VECTOR('',#447,1.0);
#445=DIRECTION('',(-1,0,0));
#446=DIRECTION('',(0,-0.9998476952159514,-0.017452403025084915));
#447=DIRECTION('',(0.8154042458317114,0.5788038045303594,0.010103056012880574));
#448=FACE_SURFACE('',(#453),#449,.T.);
#449=PLANE('',#450);
#450=AXIS2_PLACEMENT_3D('',#36,#451,#452);
#451=DIRECTION('',(0,-0.017452403025084915,0.9998476952159514));
#452=DIRECTION('',(-0.8154042458317114,-0.5788038045303594,-0.010103056012880574));
#453=FACE_BOUND('',#454,.T.);
#454=EDGE_LOOP('',(#455,#456,#457));
#455=ORIENTED_EDGE('',*,*,#458,.T.);
#456=ORIENTED_EDGE('',*,*,#459,.T.);
#457=ORIENTED_EDGE('',*,*,#460,.T.);
#458=EDGE_CURVE('',#37,#53,#461,.F.);
#459=EDGE_CURVE('',#53,#39,#462,.T.);
#460=EDGE_CURVE('',#39,#37,#463,.T.);
#461=LINE('',#36,#464);
#462=LINE('',#52,#465);
#463=LINE('',#38,#466);
#464=VECTOR('',#467,1.0);
#465=VECTOR('',#468,1.0);
#466=VECTOR('',#469,1.0);
#467=DIRECTION('',(-0.8154042458317114,-0.5788038045303594,-0.010103056012880574));
#468=DIRECTION('',(1,0,0));
#469=DIRECTION('',(0,0.9998476952159514,0.017452403025084915));
#470=FACE_SURFACE('',(#475),#471,.T.);
#471=PLANE('',#472);
#472=AXIS2_PLACEMENT_3D('',#68,#473,#474);
#473=DIRECTION('',(0,0.01745240601181591,-0.9998476951638178));
#474=DIRECTION('',(-1,0,0));
#475=FACE_BOUND('',#476,.T.);
#476=EDGE_LOOP('',(#477,#478,#479));
#477=ORIENTED_EDGE('',*,*,#480,.T.);
#478=ORIENTED_EDGE('',*,*,#481,.T.);
#479=ORIENTED_EDGE('',*,*,#482,.T.);
#480=EDGE_CURVE('',#69,#71,#483,.F.);
#481=EDGE_CURVE('',#71,#65,#484,.T.);
#482=EDGE_CURVE('',#65,#69,#485,.T.);
#483=LINE('',#68,#486);
#484=LINE('',#70,#487);
#485=LINE('',#64,#488);
#486=VECTOR('',#489,1.0);
#487=VECTOR('',#490,1.0);
#488=VECTOR('',#491,1.0);
#489=DIRECTION('',(-1,0,0));
#490=DIRECTION('',(0.7855829829793117,0.6186620750175977,0.010798786424717013));
#491=DIRECTION('',(0,-0.9998476951638178,-0.01745240601181591));
#492=FACE_SURFACE('',(#497),#493,.T.);
#493=PLANE('',#494);
#494=AXIS2_PLACEMENT_3D('',#44,#495,#496);
#495=DIRECTION('',(0,0.01745240601181591,-0.9998476951638178));
#496=DIRECTION('',(1,0,0));
#497=FACE_BOUND('',#498,.T.);
#498=EDGE_LOOP('',(#499,#500,#501));
#499=ORIENTED_EDGE('',*,*,#502,.T.);
#500=ORIENTED_EDGE('',*,*,#503,.T.);
#501=ORIENTED_EDGE('',*,*,#504,.T.);
#502=EDGE_CURVE('',#45,#65,#505,.F.);
#503=EDGE_CURVE('',#65,#71,#506,.T.);
#504=EDGE_CURVE('',#71,#45,#507,.T.);
#505=LINE('',#44,#508);
#506=LINE('',#64,#509);
#507=LINE('',#70,#510);
#508=VECTOR('',#511,1.0);
#509=VECTOR('',#512,1.0);
#510=VECTOR('',#513,1.0);
#511=DIRECTION('',(1,0,0));
#512=DIRECTION('',(-0.7855829829793117,-0.6186620750175977,-0.010798786424717013));
#513=DIRECTION('',(0,0.9998476951638178,0.01745240601181591));
#514=FACE_SURFACE('',(#519),#515,.T.);
#515=PLANE('',#516);
#516=AXIS2_PLACEMENT_3D('',#36,#517,#518);
#517=DIRECTION('',(0,0.9998476980472435,0.017452240819678784));
#518=DIRECTION('',(-0.018301759801248093,0.017449317722352826,-0.9996802323239175));
#519=FACE_BOUND('',#520,.T.);
#520=EDGE_LOOP('',(#521,#522,#523));
#521=ORIENTED_EDGE('',*,*,#524,.T.);
#522=ORIENTED_EDGE('',*,*,#525,.T.);
#523=ORIENTED_EDGE('',*,*,#526,.T.);
#524=EDGE_CURVE('',#37,#51,#527,.F.);
#525=EDGE_CURVE('',#51,#63,#528,.T.);
#526=EDGE_CURVE('',#63,#37,#529,.T.);
#527=LINE('',#36,#530);
#528=LINE('',#50,#531);
#529=LINE('',#62,#532);
#530=VECTOR('',#533,1.0);
#531=VECTOR('',#534,1.0);
#532=VECTOR('',#535,1.0);
#533=DIRECTION('',(-0.018301759801248093,0.017449317722352826,-0.9996802323239175));
#534=DIRECTION('',(-0.9997556991017236,-0.0003857466832661529,0.022099622465564905));
#535=DIRECTION('',(1,0,0));
#536=FACE_SURFACE('',(#541),#537,.T.);
#537=PLANE('',#538);
#538=AXIS2_PLACEMENT_3D('',#34,#539,#540);
#539=DIRECTION('',(0,0.9998476980472436,0.017452240819678784));
#540=DIRECTION('',(-1,0,0));
#541=FACE_BOUND('',#542,.T.);
#542=EDGE_LOOP('',(#543,#544,#545));
#543=ORIENTED_EDGE('',*,*,#546,.T.);
#544=ORIENTED_EDGE('',*,*,#547,.T.);
#545=ORIENTED_EDGE('',*,*,#548,.T.);
#546=EDGE_CURVE('',#35,#51,#549,.F.);
#547=EDGE_CURVE('',#51,#37,#550,.T.);
#548=EDGE_CURVE('',#37,#35,#551,.T.);
#549=LINE('',#34,#552);
#550=LINE('',#50,#553);
#551=LINE('',#36,#554);
#552=VECTOR('',#555,1.0);
#553=VECTOR('',#556,1.0);
#554=VECTOR('',#557,1.0);
#555=DIRECTION('',(-1,0,0));
#556=DIRECTION('',(0.018301759801248093,-0.017449317722352826,0.9996802323239175));
#557=DIRECTION('',(0,0.017452240819678784,-0.9998476980472435));
#558=FACE_SURFACE('',(#563),#559,.T.);
#559=PLANE('',#560);
#560=AXIS2_PLACEMENT_3D('',#56,#561,#562);
#561=DIRECTION('',(-0,0.9998476980472436,0.017452240819678784));
#562=DIRECTION('',(0,-0.017452240819678784,0.9998476980472435));
#563=FACE_BOUND('',#564,.T.);
#564=EDGE_LOOP('',(#565,#566,#567));
#565=ORIENTED_EDGE('',*,*,#568,.T.);
#566=ORIENTED_EDGE('',*,*,#569,.T.);
#567=ORIENTED_EDGE('',*,*,#570,.T.);
#568=EDGE_CURVE('',#57,#63,#571,.F.);
#569=EDGE_CURVE('',#63,#51,#572,.T.);
#570=EDGE_CURVE('',#51,#57,#573,.T.);
#571=LINE('',#56,#574);
#572=LINE('',#62,#575);
#573=LINE('',#50,#576);
#574=VECTOR('',#577,1.0);
#575=VECTOR('',#578,1.0);
#576=VECTOR('',#579,1.0);
#577=DIRECTION('',(0,-0.017452240819678784,0.9998476980472435));
#578=DIRECTION('',(0.9997556991017236,0.0003857466832661529,-0.022099622465564905));
#579=DIRECTION('',(-1,0,0));
#580=FACE_SURFACE('',(#585),#581,.T.);
#581=PLANE('',#582);
#582=AXIS2_PLACEMENT_3D('',#70,#583,#584);
#583=DIRECTION('',(-1,0,0));
#584=DIRECTION('',(0,-0.01745223939728473,0.9998476980720713));
#585=FACE_BOUND('',#586,.T.);
#586=EDGE_LOOP('',(#587,#588,#589));
#587=ORIENTED_EDGE('',*,*,#590,.T.);
#588=ORIENTED_EDGE('',*,*,#591,.T.);
#589=ORIENTED_EDGE('',*,*,#592,.T.);
#590=EDGE_CURVE('',#71,#59,#593,.F.);
#591=EDGE_CURVE('',#59,#47,#594,.T.);
#592=EDGE_CURVE('',#47,#71,#595,.T.);
#593=LINE('',#70,#596);
#594=LINE('',#58,#597);
#595=LINE('',#46,#598);
#596=VECTOR('',#599,1.0);
#597=VECTOR('',#600,1.0);
#598=VECTOR('',#601,1.0);
#599=DIRECTION('',(0,-0.01745223939728473,0.9998476980720713));
#600=DIRECTION('',(0,0.9998476952235192,0.017452402591520606));
#601=DIRECTION('',(0,-0.9982362912257086,-0.059365873024342854));
#602=FACE_SURFACE('',(#607),#603,.T.);
#603=PLANE('',#604);
#604=AXIS2_PLACEMENT_3D('',#70,#605,#606);
#605=DIRECTION('',(-1,0,0));
#606=DIRECTION('',(0,0.9982362912257086,0.059365873024342854));
#607=FACE_BOUND('',#608,.T.);
#608=EDGE_LOOP('',(#609,#610,#611));
#609=ORIENTED_EDGE('',*,*,#612,.T.);
#610=ORIENTED_EDGE('',*,*,#613,.T.);
#611=ORIENTED_EDGE('',*,*,#614,.T.);
#612=EDGE_CURVE('',#71,#47,#615,.F.);
#613=EDGE_CURVE('',#47,#45,#616,.T.);
#614=EDGE_CURVE('',#45,#71,#617,.T.);
#615=LINE('',#70,#618);
#616=LINE('',#46,#619);
#617=LINE('',#44,#620);
#618=VECTOR('',#621,1.0);
#619=VECTOR('',#622,1.0);
#620=VECTOR('',#623,1.0);
#621=DIRECTION('',(0,0.9982362912257086,0.059365873024342854));
#622=DIRECTION('',(0,0.017452240819678784,-0.9998476980472436));
#623=DIRECTION('',(0,-0.9998476951638178,-0.01745240601181591));
#624=FACE_SURFACE('',(#629),#625,.T.);
#625=PLANE('',#626);
#626=AXIS2_PLACEMENT_3D('',#68,#627,#628);
#627=DIRECTION('',(0,-0.9998476980720713,-0.01745223939728473));
#628=DIRECTION('',(0.7310577956158031,-0.011907934191332306,0.6822116244778138));
#629=FACE_BOUND('',#630,.T.);
#630=EDGE_LOOP('',(#631,#632,#633));
#631=ORIENTED_EDGE('',*,*,#634,.T.);
#632=ORIENTED_EDGE('',*,*,#635,.T.);
#633=ORIENTED_EDGE('',*,*,#636,.T.);
#634=EDGE_CURVE('',#69,#73,#637,.F.);
#635=EDGE_CURVE('',#73,#61,#638,.T.);
#636=EDGE_CURVE('',#61,#69,#639,.T.);
#637=LINE('',#68,#640);
#638=LINE('',#72,#641);
#639=LINE('',#60,#642);
#640=VECTOR('',#643,1.0);
#641=VECTOR('',#644,1.0);
#642=VECTOR('',#645,1.0);
#643=DIRECTION('',(0.7310577956158031,-0.011907934191332306,0.6822116244778138));
#644=DIRECTION('',(-1,0,0));
#645=DIRECTION('',(0.9994093830056978,0.0005997289233024059,-0.03435877595882885));
#646=FACE_SURFACE('',(#651),#647,.T.);
#647=PLANE('',#648);
#648=AXIS2_PLACEMENT_3D('',#68,#649,#650);
#649=DIRECTION('',(-0,-0.9998476980720713,-0.01745223939728473));
#650=DIRECTION('',(-0.9994093830056978,-0.0005997289233024059,0.03435877595882885));
#651=FACE_BOUND('',#652,.T.);
#652=EDGE_LOOP('',(#653,#654,#655));
#653=ORIENTED_EDGE('',*,*,#656,.T.);
#654=ORIENTED_EDGE('',*,*,#657,.T.);
#655=ORIENTED_EDGE('',*,*,#658,.T.);
#656=EDGE_CURVE('',#69,#61,#659,.F.);
#657=EDGE_CURVE('',#61,#71,#660,.T.);
#658=EDGE_CURVE('',#71,#69,#661,.T.);
#659=LINE('',#68,#662);
#660=LINE('',#60,#663);
#661=LINE('',#70,#664);
#662=VECTOR('',#665,1.0);
#663=VECTOR('',#666,1.0);
#664=VECTOR('',#667,1.0);
#665=DIRECTION('',(-0.9994093830056978,-0.0005997289233024059,0.03435877595882885));
#666=DIRECTION('',(-0.7590728487870669,0.011361507175295528,-0.6509065419774118));
#667=DIRECTION('',(1,0,0));
#668=FACE_SURFACE('',(#673),#669,.T.);
#669=PLANE('',#670);
#670=AXIS2_PLACEMENT_3D('',#70,#671,#672);
#671=DIRECTION('',(0,-0.9998476980720713,-0.01745223939728473));
#672=DIRECTION('',(0.7590728487870669,-0.011361507175295528,0.6509065419774118));
#673=FACE_BOUND('',#674,.T.);
#674=EDGE_LOOP('',(#675,#676,#677));
#675=ORIENTED_EDGE('',*,*,#678,.T.);
#676=ORIENTED_EDGE('',*,*,#679,.T.);
#677=ORIENTED_EDGE('',*,*,#680,.T.);
#678=EDGE_CURVE('',#71,#61,#681,.F.);
#679=EDGE_CURVE('',#61,#59,#682,.T.);
#680=EDGE_CURVE('',#59,#71,#683,.T.);
#681=LINE('',#70,#684);
#682=LINE('',#60,#685);
#683=LINE('',#58,#686);
#684=VECTOR('',#687,1.0);
#685=VECTOR('',#688,1.0);
#686=VECTOR('',#689,1.0);
#687=DIRECTION('',(0.7590728487870669,-0.011361507175295528,0.6509065419774118));
#688=DIRECTION('',(-1,0,0));
#689=DIRECTION('',(0,0.01745223939728473,-0.9998476980720713));
#690=FACE_SURFACE('',(#695),#691,.T.);
#691=PLANE('',#692);
#692=AXIS2_PLACEMENT_3D('',#54,#693,#694);
#693=DIRECTION('',(0,-0.017452411060172954,0.9998476950756985));
#694=DIRECTION('',(0,-0.9998476950756984,-0.017452411060172954));
#695=FACE_BOUND('',#696,.T.);
#696=EDGE_LOOP('',(#697,#698,#699));
#697=ORIENTED_EDGE('',*,*,#700,.T.);
#698=ORIENTED_EDGE('',*,*,#701,.T.);
#699=ORIENTED_EDGE('',*,*,#702,.T.);
#700=EDGE_CURVE('',#55,#61,#703,.F.);
#701=EDGE_CURVE('',#61,#73,#704,.T.);
#702=EDGE_CURVE('',#73,#55,#705,.T.);
#703=LINE('',#54,#706);
#704=LINE('',#60,#707);
#705=LINE('',#72,#708);
#706=VECTOR('',#709,1.0);
#707=VECTOR('',#710,1.0);
#708=VECTOR('',#711,1.0);
#709=DIRECTION('',(0,-0.9998476950756984,-0.017452411060172954));
#710=DIRECTION('',(1,0,0));
#711=DIRECTION('',(-0.9992973582281648,0.03747481765102619,0.0006541255485928962));
#712=FACE_SURFACE('',(#717),#713,.T.);
#713=PLANE('',#714);
#714=AXIS2_PLACEMENT_3D('',#54,#715,#716);
#715=DIRECTION('',(0,-0.017452411060172954,0.9998476950756985));
#716=DIRECTION('',(0.9992973582281648,-0.03747481765102619,-0.0006541255485928962));
#717=FACE_BOUND('',#718,.T.);
#718=EDGE_LOOP('',(#719,#720,#721));
#719=ORIENTED_EDGE('',*,*,#722,.T.);
#720=ORIENTED_EDGE('',*,*,#723,.T.);
#721=ORIENTED_EDGE('',*,*,#724,.T.);
#722=EDGE_CURVE('',#55,#73,#725,.F.);
#723=EDGE_CURVE('',#73,#49,#726,.T.);
#724=EDGE_CURVE('',#49,#55,#727,.T.);
#725=LINE('',#54,#728);
#726=LINE('',#72,#729);
#727=LINE('',#48,#730);
#728=VECTOR('',#731,1.0);
#729=VECTOR('',#732,1.0);
#730=VECTOR('',#733,1.0);
#731=DIRECTION('',(0.9992973582281648,-0.03747481765102619,-0.0006541255485928962));
#732=DIRECTION('',(0,0.9998476950756984,0.017452411060172954));
#733=DIRECTION('',(-1,0,0));
#734=FACE_SURFACE('',(#739),#735,.T.);
#735=PLANE('',#736);
#736=AXIS2_PLACEMENT_3D('',#66,#737,#738);
#737=DIRECTION('',(0.6823155127297895,0.012758704657488613,-0.7309464799448366));
#738=DIRECTION('',(0,-0.9998476954812267,-0.017452387827462165));
#739=FACE_BOUND('',#740,.T.);
#740=EDGE_LOOP('',(#741,#742,#743));
#741=ORIENTED_EDGE('',*,*,#744,.T.);
#742=ORIENTED_EDGE('',*,*,#745,.T.);
#743=ORIENTED_EDGE('',*,*,#746,.T.);
#744=EDGE_CURVE('',#67,#51,#747,.F.);
#745=EDGE_CURVE('',#51,#65,#748,.T.);
#746=EDGE_CURVE('',#65,#67,#749,.T.);
#747=LINE('',#66,#750);
#748=LINE('',#50,#751);
#749=LINE('',#64,#752);
#750=VECTOR('',#753,1.0);
#751=VECTOR('',#754,1.0);
#752=VECTOR('',#755,1.0);
#753=DIRECTION('',(0,-0.9998476954812267,-0.017452387827462165));
#754=DIRECTION('',(-0.5510577487267662,0.6660012907137293,-0.5027699656262641));
#755=DIRECTION('',(0.7310578233548144,-0.01190793464316296,0.6822115947448086));
#756=FACE_SURFACE('',(#761),#757,.T.);
#757=PLANE('',#758);
#758=AXIS2_PLACEMENT_3D('',#68,#759,#760);
#759=DIRECTION('',(0.682315521203435,0.012758717813277247,-0.7309464718053205));
#760=DIRECTION('',(0,0.9998476951638178,0.01745240601181591));
#761=FACE_BOUND('',#762,.T.);
#762=EDGE_LOOP('',(#763,#764,#765));
#763=ORIENTED_EDGE('',*,*,#766,.T.);
#764=ORIENTED_EDGE('',*,*,#767,.T.);
#765=ORIENTED_EDGE('',*,*,#768,.T.);
#766=EDGE_CURVE('',#69,#65,#769,.F.);
#767=EDGE_CURVE('',#65,#51,#770,.T.);
#768=EDGE_CURVE('',#51,#69,#771,.T.);
#769=LINE('',#68,#772);
#770=LINE('',#64,#773);
#771=LINE('',#50,#774);
#772=VECTOR('',#775,1.0);
#773=VECTOR('',#776,1.0);
#774=VECTOR('',#777,1.0);
#775=DIRECTION('',(0,0.9998476951638178,0.01745240601181591));
#776=DIRECTION('',(0.5510577487267662,-0.6660012907137293,0.5027699656262641));
#777=DIRECTION('',(-0.047418666648473565,-0.9969697958922513,-0.061666004669053434));
#778=FACE_SURFACE('',(#783),#779,.T.);
#779=PLANE('',#780);
#780=AXIS2_PLACEMENT_3D('',#68,#781,#782);
#781=DIRECTION('',(0.6823155457648034,0.012758715229729286,-0.7309464489231514));
#782=DIRECTION('',(0.047418666648473565,0.9969697958922513,0.061666004669053434));
#783=FACE_BOUND('',#784,.T.);
#784=EDGE_LOOP('',(#785,#786,#787));
#785=ORIENTED_EDGE('',*,*,#788,.T.);
#786=ORIENTED_EDGE('',*,*,#789,.T.);
#787=ORIENTED_EDGE('',*,*,#790,.T.);
#788=EDGE_CURVE('',#69,#51,#791,.F.);
#789=EDGE_CURVE('',#51,#49,#792,.T.);
#790=EDGE_CURVE('',#49,#69,#793,.T.);
#791=LINE('',#68,#794);
#792=LINE('',#50,#795);
#793=LINE('',#48,#796);
#794=VECTOR('',#797,1.0);
#795=VECTOR('',#798,1.0);
#796=VECTOR('',#799,1.0);
#797=DIRECTION('',(0.047418666648473565,0.9969697958922513,0.061666004669053434));
#798=DIRECTION('',(0,-0.9998476952159514,-0.017452403025084915));
#799=DIRECTION('',(-0.5787629268092005,-0.6014171957396466,-0.5507547832020233));
#800=FACE_SURFACE('',(#805),#801,.T.);
#801=PLANE('',#802);
#802=AXIS2_PLACEMENT_3D('',#68,#803,#804);
#803=DIRECTION('',(0.6823155424503793,0.012758721157830987,-0.7309464519135868));
#804=DIRECTION('',(0.5787629268092005,0.6014171957396466,0.5507547832020233));
#805=FACE_BOUND('',#806,.T.);
#806=EDGE_LOOP('',(#807,#808,#809));
#807=ORIENTED_EDGE('',*,*,#810,.T.);
#808=ORIENTED_EDGE('',*,*,#811,.T.);
#809=ORIENTED_EDGE('',*,*,#812,.T.);
#810=EDGE_CURVE('',#69,#49,#813,.F.);
#811=EDGE_CURVE('',#49,#73,#814,.T.);
#812=EDGE_CURVE('',#73,#69,#815,.T.);
#813=LINE('',#68,#816);
#814=LINE('',#48,#817);
#815=LINE('',#72,#818);
#816=VECTOR('',#819,1.0);
#817=VECTOR('',#820,1.0);
#818=VECTOR('',#821,1.0);
#819=DIRECTION('',(0.5787629268092005,0.6014171957396466,0.5507547832020233));
#820=DIRECTION('',(0,-0.9998476950756984,-0.017452411060172954));
#821=DIRECTION('',(-0.7310577956158031,0.011907934191332306,-0.6822116244778138));
#822=FACE_SURFACE('',(#827),#823,.T.);
#823=PLANE('',#824);
#824=AXIS2_PLACEMENT_3D('',#42,#825,#826);
#825=DIRECTION('',(0,-0.017452387827462165,0.9998476954812267));
#826=DIRECTION('',(0,-0.9998476954812267,-0.017452387827462165));
#827=FACE_BOUND('',#828,.T.);
#828=EDGE_LOOP('',(#829,#830,#831));
#829=ORIENTED_EDGE('',*,*,#832,.T.);
#830=ORIENTED_EDGE('',*,*,#833,.T.);
#831=ORIENTED_EDGE('',*,*,#834,.T.);
#832=EDGE_CURVE('',#43,#57,#835,.F.);
#833=EDGE_CURVE('',#57,#51,#836,.T.);
#834=EDGE_CURVE('',#51,#43,#837,.T.);
#835=LINE('',#42,#838);
#836=LINE('',#56,#839);
#837=LINE('',#50,#840);
#838=VECTOR('',#841,1.0);
#839=VECTOR('',#842,1.0);
#840=VECTOR('',#843,1.0);
#841=DIRECTION('',(0,-0.9998476954812267,-0.017452387827462165));
#842=DIRECTION('',(1,0,0));
#843=DIRECTION('',(-0.9991035672479707,0.04232630477250828,0.0007388076099306739));
#844=FACE_SURFACE('',(#849),#845,.T.);
#845=PLANE('',#846);
#846=AXIS2_PLACEMENT_3D('',#42,#847,#848);
#847=DIRECTION('',(0,-0.017452387827462165,0.9998476954812267));
#848=DIRECTION('',(0.9991035672479707,-0.04232630477250828,-0.0007388076099306739));
#849=FACE_BOUND('',#850,.T.);
#850=EDGE_LOOP('',(#851,#852,#853));
#851=ORIENTED_EDGE('',*,*,#854,.T.);
#852=ORIENTED_EDGE('',*,*,#855,.T.);
#853=ORIENTED_EDGE('',*,*,#856,.T.);
#854=EDGE_CURVE('',#43,#51,#857,.F.);
#855=EDGE_CURVE('',#51,#67,#858,.T.);
#856=EDGE_CURVE('',#67,#43,#859,.T.);
#857=LINE('',#42,#860);
#858=LINE('',#50,#861);
#859=LINE('',#66,#862);
#860=VECTOR('',#863,1.0);
#861=VECTOR('',#864,1.0);
#862=VECTOR('',#865,1.0);
#863=DIRECTION('',(0.9991035672479707,-0.04232630477250828,-0.0007388076099306739));
#864=DIRECTION('',(0,0.9998476954812267,0.017452387827462165));
#865=DIRECTION('',(-1,0,0));
ENDSEC;
END-ISO-10303-21;
